<?xml version="1.0" standalone="no"?>
<!DOCTYPE svg PUBLIC "-//W3C//DTD SVG 20010904//EN"
 "http://www.w3.org/TR/2001/REC-SVG-20010904/DTD/svg10.dtd">
<svg version="1.0" xmlns="http://www.w3.org/2000/svg"
 width="1280.000000pt" height="1280.000000pt" viewBox="0 0 1280.000000 1280.000000"
 preserveAspectRatio="xMidYMid meet">
<metadata>
Created by potrace 1.11, written by Peter Selinger 2001-2013
</metadata>
<g transform="translate(0.000000,1280.000000) scale(0.100000,-0.100000)"
fill="#000000" stroke="none">
<path d="M3800 6400 l0 -3600 1255 0 1255 0 0 3600 0 3600 -1255 0 -1255 0 0
-3600z"/>
<path d="M7320 6177 l0 -3377 840 0 840 0 0 2569 0 2568 -72 68 c-40 38 -138
131 -218 208 -80 77 -203 197 -275 266 -71 69 -193 186 -270 261 -77 74 -205
198 -285 274 -252 243 -403 388 -482 465 l-78 76 0 -3378z"/>
</g>
</svg>
